<svg xmlns="http://www.w3.org/2000/svg" viewBox="0 0 168 40" role="img" aria-label="Acriva 融销通">
  <!-- Mark: 田字格印 -->
  <g transform="translate(0 4)">
    <rect width="32" height="32" rx="7" fill="#1C1712"/>
    <g opacity="0.28" transform="translate(0.35 0.45)">
      <path fill="#000000" d="
        M7.2 6.9 L24.6 6.55 L25.05 10.15 L7.0 10.05 Z
        M6.95 21.85 L25.1 22.15 L24.75 25.35 L7.15 25.05 Z
        M6.85 6.95 L10.25 6.7 L10.05 25.15 L6.65 24.95 Z
        M21.75 6.85 L25.15 7.05 L24.95 25.1 L21.55 24.85 Z
        M7.05 14.15 L25.05 13.9 L24.95 17.55 L6.95 17.65 Z
        M14.15 6.85 L17.65 6.7 L17.5 25.1 L14.0 24.95 Z
      "/>
    </g>
    <path fill="#B33A2B" d="
      M7.15 6.75 L24.7 6.5 L25.1 10.1 L6.95 10.0 Z
      M6.9 21.75 L25.15 22.05 L24.8 25.3 L7.1 25.0 Z
      M6.8 6.9 L10.2 6.65 L10.0 25.1 L6.6 24.9 Z
      M21.7 6.8 L25.2 7.0 L24.95 25.05 L21.5 24.8 Z
      M7.0 14.1 L25.1 13.85 L25.0 17.5 L6.9 17.6 Z
      M14.1 6.8 L17.7 6.65 L17.55 25.05 L13.95 24.9 Z
    "/>
    <rect x="14.4" y="5.9" width="3.2" height="3.2" rx="0.45" fill="#C9892E"/>
  </g>
  <!-- Wordmark -->
  <text
    x="42"
    y="22"
    fill="#1C1712"
    font-family="IBM Plex Sans, Noto Sans SC, system-ui, sans-serif"
    font-size="18"
    font-weight="700"
    letter-spacing="-0.03em"
  >Acriva</text>
  <text
    x="42"
    y="34"
    fill="#6F6558"
    font-family="IBM Plex Sans, Noto Sans SC, system-ui, sans-serif"
    font-size="9"
    font-weight="500"
  >融销通</text>
</svg>
